{"title":"Minuscule Valley Of The Lost Ants 2014 HDRip XviD AC3-N3kr4","uid":10270595,"size":1605161620,"categoryP":"video","categoryS":"hd___movies","magnet":"?xt=urn:btih:1172c954db3619824138c24cec0fbd20e7dbe9b0&amp;dn=Minuscule+Valley+Of+The+Lost+Ants+2014+HDRip+XviD+AC3-N3kr4&amp;tr=udp%3A%2F%2Ftracker.openbittorrent.com%3A80&amp;tr=udp%3A%2F%2Fopen.demonii.com%3A1337&amp;tr=udp%3A%2F%2Ftracker.coppersurfer.tk%3A6969&amp;tr=udp%3A%2F%2Fexodus.desync.com%3A6969","seeders":0,"leechers":1,"uploader":"Falcon.G13","files":1,"time":1401576063,"description":"Minuscule Valley Of The Lost Ants 2014\n\n\nGeneral\nComplete name                  :Minuscule Valley Of The Lost Ants 2014 HDRip XviD AC3-N3kr4.avi\nFormat                         : AVI\nFormat/Info                    : Audio Video Interleave\nFormat profile                 : OpenDML\nFile size                      : 1.49 GiB\nDuration                       : 1h 24mn\nOverall bit rate               : 2 527 Kbps\nWriting application            : Lavf55.7.100\n\nVideo\nID                             : 0\nFormat                         : MPEG-4 Visual\nFormat profile                 : Advanced Simple@L1\nFormat settings, BVOP          : No\nFormat settings, QPel          : No\nFormat settings, GMC           : No warppoints\nFormat settings, Matrix        : Default (H.263)\nCodec ID                       : XVID\nCodec ID/Hint                  : XviD\nDuration                       : 1h 24mn\nBit rate                       : 1 875 Kbps\nWidth                          : 720 pixels\nHeight                         : 304 pixels\nDisplay aspect ratio           : 2.35:1\nFrame rate                     : 25.000 fps\nColor space                    : YUV\nChroma subsampling             : 4:2:0\nBit depth                      : 8 bits\nScan type                      : Progressive\nCompression mode               : Lossy\nBits/(Pixel*Frame)             : 0.343\nStream size                    : 1.11 GiB (74%)\nWriting library                : Lavc55.12.100\n\nAudio\nID                             : 1\nFormat                         : AC-3\nFormat/Info                    : Audio Coding 3\nMode extension                 : CM (complete main)\nFormat settings, Endianness    : Big\nCodec ID                       : 2000\nDuration                       : 1h 24mn\nBit rate mode                  : Constant\nBit rate                       : 640 Kbps\nChannel(s)                     : 6 channels\nChannel positions              : Front: L C R, Side: L R, LFE\nSampling rate                  : 48.0 KHz\nBit depth                      : 16 bits\nCompression mode               : Lossy\nStream size                    : 388 MiB (25%)\nAlignment                      : Aligned on interleaves\nInterleave, duration           : 32 ms (0.80 video frame)\n\n","torrent":{"xt":"urn:btih:1172c954db3619824138c24cec0fbd20e7dbe9b0","amp;dn":"Minuscule+Valley+Of+The+Lost+Ants+2014+HDRip+XviD+AC3-N3kr4","amp;tr":["udp%3A%2F%2Ftracker.openbittorrent.com%3A80","udp%3A%2F%2Fopen.demonii.com%3A1337","udp%3A%2F%2Ftracker.coppersurfer.tk%3A6969","udp%3A%2F%2Fexodus.desync.com%3A6969"],"infoHash":"1172c954db3619824138c24cec0fbd20e7dbe9b0","infoHashBuffer":{"type":"Buffer","data":[17,114,201,84,219,54,25,130,65,56,194,76,236,15,189,32,231,219,233,176]},"announce":[],"urlList":[]}}